<svg width="24" height="25" viewBox="0 0 24 25" fill="none" xmlns="http://www.w3.org/2000/svg">
<path d="M14 9.76009V12.5961H16.6C16.8 12.5961 16.9 12.7916 16.9 12.9872L16.5 14.8453C16.5 14.9431 16.3 15.0409 16.2 15.0409H14V22.1797H11V15.1386H9.3C9.1 15.1386 9 15.0409 9 14.8453V12.9872C9 12.7916 9.1 12.6938 9.3 12.6938H11V9.46672C11 7.80425 12.3 6.53296 14 6.53296H16.7C16.9 6.53296 17 6.63075 17 6.82633V9.17334C17 9.36892 16.9 9.46672 16.7 9.46672H14.3C14.1 9.46672 14 9.56451 14 9.76009Z" stroke="#3A3A3A" stroke-width="1.5" stroke-miterlimit="10" stroke-linecap="round"/>
<path d="M15 22.1797H9C4 22.1797 2 20.2239 2 15.3343V9.46677C2 4.57718 4 2.62134 9 2.62134H15C20 2.62134 22 4.57718 22 9.46677V15.3343C22 20.2239 20 22.1797 15 22.1797Z" stroke="#3A3A3A" stroke-width="1.5" stroke-linecap="round" stroke-linejoin="round"/>
</svg>
