<svg width="24" height="25" viewBox="0 0 24 25" fill="none" xmlns="http://www.w3.org/2000/svg">
<path d="M21.5992 10.6403H12.1992V14.2586H17.6992C17.5992 15.1387 16.9992 16.5078 15.6992 17.3879C14.8992 17.9747 13.6992 18.3658 12.1992 18.3658C9.59922 18.3658 7.29922 16.7034 6.49922 14.2586C6.29922 13.6718 6.19922 12.9873 6.19922 12.3027C6.19922 11.6182 6.29922 10.9336 6.49922 10.3469C6.59922 10.1513 6.59922 9.95573 6.69922 9.85794C7.59922 7.80431 9.69922 6.33743 12.1992 6.33743C14.0992 6.33743 15.2992 7.11976 16.0992 7.80431L18.8992 5.06613C17.1992 3.59926 14.8992 2.62134 12.1992 2.62134C8.29922 2.62134 4.89922 4.77276 3.29922 7.99989C2.59922 9.36898 2.19922 10.8359 2.19922 12.4005C2.19922 13.9652 2.59922 15.4321 3.29922 16.8012C4.89922 20.0283 8.29922 22.1797 12.1992 22.1797C14.8992 22.1797 17.1992 21.2996 18.7992 19.8327C20.6992 18.1702 21.7992 15.6277 21.7992 12.5961C21.7992 11.8138 21.6992 11.227 21.5992 10.6403Z" stroke="#3A3A3A" stroke-width="1.5" stroke-miterlimit="10" stroke-linecap="round" stroke-linejoin="round"/>
</svg>
